<svg width="70" height="70" viewBox="0 0 70 70" fill="none" xmlns="http://www.w3.org/2000/svg">
<rect x="9" y="9" width="52" height="52" rx="26" stroke="white" stroke-width="8"/>
<path fill-rule="evenodd" clip-rule="evenodd" d="M35 59C41.3652 59 47.4697 56.4714 51.9706 51.9706C56.4714 47.4697 59 41.3652 59 35C59 28.6348 56.4714 22.5303 51.9706 18.0294C47.4697 13.5286 41.3652 11 35 11C28.6348 11 22.5303 13.5286 18.0294 18.0294C13.5286 22.5303 11 28.6348 11 35C11 41.3652 13.5286 47.4697 18.0294 51.9706C22.5303 56.4714 28.6348 59 35 59ZM33.665 26.504C33.2132 26.2026 32.688 26.0294 32.1455 26.0031C31.6031 25.9767 31.0636 26.0981 30.5847 26.3544C30.1058 26.6106 29.7055 26.992 29.4264 27.458C29.1473 27.9239 28.9999 28.4569 29 29V41C28.9999 41.5431 29.1473 42.0761 29.4264 42.542C29.7055 43.008 30.1058 43.3894 30.5847 43.6456C31.0636 43.9019 31.6031 44.0233 32.1455 43.9969C32.688 43.9706 33.2132 43.7974 33.665 43.496L42.665 37.496C43.0759 37.222 43.4128 36.8509 43.6458 36.4155C43.8788 35.98 44.0007 35.4938 44.0007 35C44.0007 34.5062 43.8788 34.02 43.6458 33.5845C43.4128 33.1491 43.0759 32.778 42.665 32.504L33.665 26.504Z" fill="white"/>
</svg>
